<svg width="274.04" height="264.19" enable-background="new 0 0 274.036 264.192" overflow="visible" viewBox="0 0 274.036 264.192" xml:space="preserve" xmlns="http://www.w3.org/2000/svg">
		<g clip-rule="evenodd" fill-rule="evenodd">
			<path d="m191.94 0c61.226 0 93.218 45.795 78.73 112.42-15.881 72.847-68.487 124.56-133.22 151.77-81.754-33.928-128.83-101.34-137.46-192.4 36.087-6.014 64.492-31.332 62.489-71.79h129.46z" fill="#0094D9"/>
			<path d="m261.01 110.28c-13.73 64.404-60.282 115.82-123.51 143.15-74.391-31.946-117.23-95.055-126.59-174.06 33.216-8.463 58.999-33.478 61.307-69.644h120.18c58.875-0.26 80.792 46.042 68.62 100.55z" fill="#fff"/>
			<path d="m252.44 108.38c-13.6 62.592-57.337 109.29-114.93 135.44-65.4-29.113-106.32-85.557-116.96-158.15 30.777-10.522 54.251-34.239 59.512-67.071h112.34c53.234-0.261 70.685 41.034 60.034 89.775z" fill="#0094D9"/>
			<path d="m211.19 93.006h-85.802l24.513-36.353 15.633-5.383c1.968-0.674 1.404-2.093 0.397-2.093h-14.674l-1.587-15.91c-0.051-0.849-1.409-1.196-1.755-0.051l-4.815 15.96h-15.279c-1.308 0-1.473 1.526 0 2.093l13.925 5.038-32.784 36.698h-69.33c-2.712 0-3.109 4.582 0 4.805l60.215 7.585c-2.034 3.688-5.426 7.255-6.626 11.381-1.248 4.297 2.102 7.59 5.435 6.845 5.375-1.175 14.268-12.335 17.899-16.803l1.397-2.2 93.238-6.973c3.307-0.172 3.245-4.639 0-4.639z" fill="#fff"/>
			<path d="m115.33 164.47c-0.613 2.281-1.132 3.921-1.588 5.177v-18.758c1.862-0.1 4.433-0.232 4.433-0.232l0.315-6.317v-10.969h-25.955s-2.945 7.759-3.755 9.925c-0.82-2.166-3.755-9.925-3.755-9.925h-26.477v17.27s2.821 0.149 4.748 0.249c0 0.231-8e-3 20.977-8e-3 21.158-1.736 0.099 153.58 0.099 151.66 0v-21.158c1.851-0.1 4.417-0.232 4.417-0.232l0.329-6.317v-10.969h-56.226v17.286s2.976 0.149 4.877 0.232v20.167c-0.526-1.06-1.237-3.159-2.315-7.81l-17.946-76.72-12.884-0.125c0-1e-3 -19.85 77.935-19.868 78.068zm24.963 4.335c0.265 1.258 0.465 2.315 0.614 3.227-0.961 0.034-1.456 0.051-2.665 0.097v-0.166h-5.095c0.092-0.379 0.405-1.619 0.803-3.157 2.703-1e-3 3.614-1e-3 6.343-1e-3z" fill="#0094D9"/>
			<path d="m144.44 157.29l-6.547-32.183-7.691 32.183h14.238zm39.618 10.142l15.154-18.478v-0.63c0-2.052-1.159-3.985-4.88-3.985v-4.351h18.727v4.351c-4.615 0-4.749 1.801-4.749 6.416v21.426c0 4.746 0.38 6.416 4.749 6.416v4.22h-18.726v-4.22c4.236 0 4.88-1.539 4.88-6.416v-16.661l-15.154 18.593v0.764c0 2.562 1.424 3.721 4.88 3.721v4.22h-46.549v-4.22c3.341 0 5.51-0.265 5.51-3.606 0-2.035-0.895-7.179-2.3-12.82h-16.804l-2.184 8.604c-1.538 5.639-1.034 7.823 4.996 7.823v4.22h-38.858v-4.22c4.615 0 5.128-1.539 5.128-6.416v-20.017l-11.796 29.264-11.926-30.158v21.288c0 4.104 0.513 6.039 4.996 6.039v4.22h-14.359v-4.22c4.88 0 5.127-2.96 5.127-7.064v-20.777c0-3.705 0-6.416-4.74-6.416v-4.351h15.253l8.345 22.067 8.336-22.067h14.74v4.351c-4.607 0-4.739 1.801-4.739 6.416v21.426c0 4.1 0.389 5.39 1.663 5.771 2.83 1.026 8.09 0.762 9.619-2.315 1.034-1.92 2.184-5.13 3.333-9.479l19.878-78.119 17.967 76.695c1.92 8.338 3.079 10.388 4.88 12.192 1.789 1.536 7.694 2.695 9.745 0.38 0.511-0.511 0.759-1.405 0.759-5.126v-21.426c0-4.88-0.379-6.416-4.863-6.416v-4.351h18.841v4.351c-4.615 0-4.88 1.934-4.88 6.416v16.675z" fill="#fff"/>
		</g>
</svg>
